<?xml version="1.0" encoding="UTF-8" standalone="no"?>
<!-- Created with Inkscape (http://www.inkscape.org/) -->

<svg
   version="1.1"
   id="svg453"
   xml:space="preserve"
   width="682.66669"
   height="682.66669"
   viewBox="0 0 682.66669 682.66669"
   xmlns="http://www.w3.org/2000/svg"
   xmlns:svg="http://www.w3.org/2000/svg"><defs
     id="defs457"><clipPath
       clipPathUnits="userSpaceOnUse"
       id="clipPath467"><path
         d="M 0,512 H 512 V 0 H 0 Z"
         id="path465" /></clipPath></defs><g
     id="g459"
     transform="matrix(1.3333333,0,0,-1.3333333,0,682.66667)"><g
       id="g461"><g
         id="g463"
         clip-path="url(#clipPath467)"><g
           id="g469"
           transform="translate(438.4805,388.209)"><path
             d="m 0,0 h -23.897 c -0.971,0 -1.758,0.787 -1.758,1.758 v 64.101 c 0,0.971 0.787,1.758 1.758,1.758 H 0 c 0.971,0 1.758,-0.787 1.758,-1.758 V 1.758 C 1.758,0.787 0.971,0 0,0 Z"
             style="fill:none;stroke:#000000;stroke-width:15;stroke-linecap:round;stroke-linejoin:round;stroke-miterlimit:10;stroke-dasharray:none;stroke-opacity:1"
             id="path471" /></g><g
           id="g473"
           transform="translate(240.4395,339.0874)"><path
             d="m 0,0 h -12.443 c -0.847,0 -1.534,0.687 -1.534,1.534 V 27.643 H 111.49 c 0.846,0 1.532,-0.686 1.532,-1.532 V 1.532 C 113.022,0.686 112.336,0 111.49,0 H 35"
             style="fill:none;stroke:#000000;stroke-width:15;stroke-linecap:round;stroke-linejoin:round;stroke-miterlimit:10;stroke-dasharray:none;stroke-opacity:1"
             id="path475" /></g><g
           id="g477"
           transform="translate(281.876,222.9395)"><path
             d="m 0,0 h 35.31 v 30.245 c 0,2.797 -2.268,5.065 -5.065,5.065 H 5.064 C 2.268,35.31 0,33.042 0,30.245 Z"
             style="fill:none;stroke:#000000;stroke-width:15;stroke-linecap:round;stroke-linejoin:round;stroke-miterlimit:10;stroke-dasharray:none;stroke-opacity:1"
             id="path479" /></g><g
           id="g481"
           transform="translate(101.1582,394.1694)"><path
             d="m 0,0 h 36.525 c 0.714,0 1.292,0.579 1.292,1.292 v 53.112 c 0,0.714 -0.578,1.292 -1.292,1.292 L 0,55.696 c -0.714,0 -1.293,-0.578 -1.293,-1.292 V 1.292 C -1.293,0.579 -0.714,0 0,0 Z"
             style="fill:none;stroke:#000000;stroke-width:15;stroke-linecap:round;stroke-linejoin:round;stroke-miterlimit:10;stroke-dasharray:none;stroke-opacity:1"
             id="path483" /></g><g
           id="g485"
           transform="translate(99.8652,401.106)"><path
             d="m 0,0 h -22.14 c -3.294,0 -5.964,2.67 -5.964,5.964 v 29.895 c 0,3.294 2.67,5.964 5.964,5.964 H 0 Z"
             style="fill:none;stroke:#000000;stroke-width:15;stroke-linecap:round;stroke-linejoin:round;stroke-miterlimit:10;stroke-dasharray:none;stroke-opacity:1"
             id="path487" /></g><g
           id="g489"
           transform="translate(320.1533,366.7305)"><path
             d="m 0,0 c 2.401,0 4.62,1.281 5.82,3.361 18.552,32.132 18.552,71.72 0,103.852 -1.2,2.08 -3.419,3.361 -5.82,3.361 h -54.258 c -3.712,0 -6.721,-3.01 -6.721,-6.721"
             style="fill:none;stroke:#000000;stroke-width:15;stroke-linecap:round;stroke-linejoin:round;stroke-miterlimit:10;stroke-dasharray:none;stroke-opacity:1"
             id="path491" /></g><g
           id="g493"
           transform="translate(285.7734,452.3047)"><path
             d="m 0,0 h 16.179 c 4.315,0 8.115,-2.823 9.386,-6.946 2.283,-7.394 3.453,-15.057 3.512,-22.727"
             style="fill:none;stroke:#000000;stroke-width:15;stroke-linecap:round;stroke-linejoin:round;stroke-miterlimit:10;stroke-dasharray:none;stroke-opacity:1"
             id="path495" /></g><g
           id="g497"
           transform="translate(270.0518,422.6318)"><path
             d="m 0,0 c 0,-15.041 -12.192,-27.234 -27.233,-27.234 -15.041,0 -27.235,12.193 -27.235,27.234 0,15.041 12.194,27.234 27.235,27.234 C -12.192,27.234 0,15.041 0,0 Z"
             style="fill:none;stroke:#000000;stroke-width:15;stroke-linecap:round;stroke-linejoin:round;stroke-miterlimit:10;stroke-dasharray:none;stroke-opacity:1"
             id="path499" /></g><g
           id="g501"
           transform="translate(242.8184,422.6318)"><path
             d="M 0,0 V 0"
             style="fill:none;stroke:#000000;stroke-width:15;stroke-linecap:round;stroke-linejoin:round;stroke-miterlimit:10;stroke-dasharray:none;stroke-opacity:1"
             id="path503" /></g><g
           id="g505"
           transform="translate(335.5791,180.1631)"><path
             d="m 0,0 h -72.097 c -2.02,0 -3.658,1.638 -3.658,3.658 v 35.46 c 0,2.021 1.638,3.658 3.658,3.658 H 0 c 2.021,0 3.658,-1.637 3.658,-3.658 V 3.658 C 3.658,1.638 2.021,0 0,0 Z"
             style="fill:none;stroke:#000000;stroke-width:15;stroke-linecap:round;stroke-linejoin:round;stroke-miterlimit:10;stroke-dasharray:none;stroke-opacity:1"
             id="path507" /></g><g
           id="g509"
           transform="translate(133.0186,394.1694)"><path
             d="m 0,0 v -60.328 l 82.712,-82.712 c 0.637,-0.637 1.5,-0.994 2.4,-0.994 h 63.745"
             style="fill:none;stroke:#000000;stroke-width:15;stroke-linecap:round;stroke-linejoin:round;stroke-miterlimit:10;stroke-dasharray:none;stroke-opacity:1"
             id="path511" /></g><g
           id="g513"
           transform="translate(281.876,222.9395)"><path
             d="m 0,0 h -70.784 c -3.607,0 -7.066,1.433 -9.615,3.983 l -91.671,91.672 c -2.55,2.55 -3.983,6.009 -3.983,9.615 v 65.96"
             style="fill:none;stroke:#000000;stroke-width:15;stroke-linecap:round;stroke-linejoin:round;stroke-miterlimit:10;stroke-dasharray:none;stroke-opacity:1"
             id="path515" /></g><g
           id="g517"
           transform="translate(138.9756,404.2285)"><path
             d="M 0,0 H 83.769"
             style="fill:none;stroke:#000000;stroke-width:15;stroke-linecap:round;stroke-linejoin:round;stroke-miterlimit:10;stroke-dasharray:none;stroke-opacity:1"
             id="path519" /></g><g
           id="g521"
           transform="translate(154.7412,439.8066)"><path
             d="M 0,0 H -15.766"
             style="fill:none;stroke:#000000;stroke-width:15;stroke-linecap:round;stroke-linejoin:round;stroke-miterlimit:10;stroke-dasharray:none;stroke-opacity:1"
             id="path523" /></g><g
           id="g525"
           transform="translate(221.6816,439.8066)"><path
             d="M 0,0 H -31.94"
             style="fill:none;stroke:#000000;stroke-width:15;stroke-linecap:round;stroke-linejoin:round;stroke-miterlimit:10;stroke-dasharray:none;stroke-opacity:1"
             id="path527" /></g><g
           id="g529"
           transform="translate(259.1738,444.4092)"><path
             d="m 0,0 v 32.592 c 0,0.846 -0.686,1.532 -1.532,1.532 h -29.647 c -0.846,0 -1.533,-0.686 -1.533,-1.532 V 0"
             style="fill:none;stroke:#000000;stroke-width:15;stroke-linecap:round;stroke-linejoin:round;stroke-miterlimit:10;stroke-dasharray:none;stroke-opacity:1"
             id="path531" /></g><g
           id="g533"
           transform="translate(226.4619,400.8545)"><path
             d="M 0,0 V -34.124"
             style="fill:none;stroke:#000000;stroke-width:15;stroke-linecap:round;stroke-linejoin:round;stroke-miterlimit:10;stroke-dasharray:none;stroke-opacity:1"
             id="path535" /></g><g
           id="g537"
           transform="translate(259.1738,400.8545)"><path
             d="M 0,0 V -34.124"
             style="fill:none;stroke:#000000;stroke-width:15;stroke-linecap:round;stroke-linejoin:round;stroke-miterlimit:10;stroke-dasharray:none;stroke-opacity:1"
             id="path539" /></g><g
           id="g541"
           transform="translate(332.3857,460.7778)"><path
             d="M 0,0 V 21.316 C 0,33.69 -10.032,43.722 -22.407,43.722 h -29.695 c -5.651,0 -10.232,-4.581 -10.232,-10.232 V 16.527"
             style="fill:none;stroke:#000000;stroke-width:15;stroke-linecap:round;stroke-linejoin:round;stroke-miterlimit:10;stroke-dasharray:none;stroke-opacity:1"
             id="path543" /></g><g
           id="g545"
           transform="translate(334.2324,388.209)"><path
             d="m 0,0 h 36.701 c 0.971,0 1.758,0.787 1.758,1.758 v 64.101 c 0,0.971 -0.787,1.758 -1.758,1.758 L 0,67.617"
             style="fill:none;stroke:#000000;stroke-width:15;stroke-linecap:round;stroke-linejoin:round;stroke-miterlimit:10;stroke-dasharray:none;stroke-opacity:1"
             id="path547" /></g><g
           id="g549"
           transform="translate(412.8252,452.4253)"><path
             d="M 0,0 H -40.134"
             style="fill:none;stroke:#000000;stroke-width:15;stroke-linecap:round;stroke-linejoin:round;stroke-miterlimit:10;stroke-dasharray:none;stroke-opacity:1"
             id="path551" /></g><g
           id="g553"
           transform="translate(372.6914,391.6099)"><path
             d="M 0,0 H 40.134"
             style="fill:none;stroke:#000000;stroke-width:15;stroke-linecap:round;stroke-linejoin:round;stroke-miterlimit:10;stroke-dasharray:none;stroke-opacity:1"
             id="path555" /></g><g
           id="g557"
           transform="translate(285.4014,366.7305)"><path
             d="m 0,0 v 24.205 c 0,2.238 1.815,4.053 4.054,4.053 h 20.151 c 2.238,0 4.053,-1.815 4.053,-4.053 V 0"
             style="fill:none;stroke:#000000;stroke-width:15;stroke-linecap:round;stroke-linejoin:round;stroke-miterlimit:10;stroke-dasharray:none;stroke-opacity:1"
             id="path559" /></g><g
           id="g561"
           transform="translate(285.4014,339.0874)"><path
             d="m 0,0 v -24.205 c 0,-2.238 1.815,-4.053 4.054,-4.053 h 20.151 c 2.238,0 4.053,1.815 4.053,4.053 V 0"
             style="fill:none;stroke:#000000;stroke-width:15;stroke-linecap:round;stroke-linejoin:round;stroke-miterlimit:10;stroke-dasharray:none;stroke-opacity:1"
             id="path563" /></g><g
           id="g565"
           transform="translate(268.4395,151.8262)"><path
             d="M 0,0 V 28.337"
             style="fill:none;stroke:#000000;stroke-width:15;stroke-linecap:round;stroke-linejoin:round;stroke-miterlimit:10;stroke-dasharray:none;stroke-opacity:1"
             id="path567" /></g><g
           id="g569"
           transform="translate(330.6221,180.1631)"><path
             d="m 0,0 v -159.979 c 0,-7.005 -5.68,-12.684 -12.685,-12.684 h -36.813 c -7.006,0 -12.685,5.679 -12.685,12.684 v 96.642"
             style="fill:none;stroke:#000000;stroke-width:15;stroke-linecap:round;stroke-linejoin:round;stroke-miterlimit:10;stroke-dasharray:none;stroke-opacity:1"
             id="path571" /></g><g
           id="g573"
           transform="translate(268.4395,66.978)"><path
             d="M 0,0 H 62.183"
             style="fill:none;stroke:#000000;stroke-width:15;stroke-linecap:round;stroke-linejoin:round;stroke-miterlimit:10;stroke-dasharray:none;stroke-opacity:1"
             id="path575" /></g><g
           id="g577"
           transform="translate(330.6221,39.335)"><path
             d="M 0,0 H -62.183"
             style="fill:none;stroke:#000000;stroke-width:15;stroke-linecap:round;stroke-linejoin:round;stroke-miterlimit:10;stroke-dasharray:none;stroke-opacity:1"
             id="path579" /></g></g></g></g></svg>
