<?xml version="1.0" encoding="UTF-8"?>
<svg xmlns="http://www.w3.org/2000/svg" xmlns:xlink="http://www.w3.org/1999/xlink" version="1.1" id="Capa_1" x="0px" y="0px" viewBox="0 0 512 512" style="enable-background:new 0 0 512 512;" xml:space="preserve" width="512" height="512">
<g>
	
		<line style="fill:none;stroke:#000000;stroke-width:15;stroke-linecap:round;stroke-linejoin:round;stroke-miterlimit:10;" x1="46.023" y1="395.042" x2="27.273" y2="341.604"/>
	
		<line style="fill:none;stroke:#000000;stroke-width:15;stroke-linecap:round;stroke-linejoin:round;stroke-miterlimit:10;" x1="55.723" y1="337.184" x2="75.052" y2="392.273"/>
	<path style="fill:none;stroke:#000000;stroke-width:15;stroke-linecap:round;stroke-linejoin:round;stroke-miterlimit:10;" d="&#10;&#9;&#9;M62.5,162.5L62.5,162.5c-6.128,20.834-9.468,42.379-9.941,64.074"/>
	<path style="fill:none;stroke:#000000;stroke-width:15;stroke-linecap:round;stroke-linejoin:round;stroke-miterlimit:10;" d="&#10;&#9;&#9;M22.5,226.702v-2.579c0-20.945,3.377-41.753,10-61.623l0,0"/>
	<path style="fill:none;stroke:#000000;stroke-width:15;stroke-linecap:round;stroke-linejoin:round;stroke-miterlimit:10;" d="&#10;&#9;&#9;M7.5,266v-13c0-16.569,13.431-30,30-30h0c16.569,0,30,13.431,30,30v60c0,16.569-13.431,30-30,30h0c-16.569,0-30-13.431-30-30v-12"/>
	
		<line style="fill:none;stroke:#000000;stroke-width:15;stroke-linecap:round;stroke-linejoin:round;stroke-miterlimit:10;" x1="193.862" y1="483.5" x2="163" y2="483.5"/>
	<path style="fill:none;stroke:#000000;stroke-width:15;stroke-linecap:round;stroke-linejoin:round;stroke-miterlimit:10;" d="&#10;&#9;&#9;M310.011,462.674C304.571,474.942,292.285,483.5,278,483.5h-23.723"/>
	<path style="fill:none;stroke:#000000;stroke-width:15;stroke-linecap:round;stroke-linejoin:round;stroke-miterlimit:10;" d="&#10;&#9;&#9;M254.34,413.5H278c14.968,0,27.742,9.396,32.744,22.612"/>
	
		<line style="fill:none;stroke:#000000;stroke-width:15;stroke-linecap:round;stroke-linejoin:round;stroke-miterlimit:10;" x1="120" y1="413.5" x2="193.83" y2="413.5"/>
	<path style="fill:none;stroke:#000000;stroke-width:15;stroke-linecap:round;stroke-linejoin:round;stroke-miterlimit:10;" d="&#10;&#9;&#9;M153.1,504.5H63.5c-30.928,0-56-25.072-56-56v0c0-30.928,25.072-56,56-56h56v24.219c0,15.873,8.359,30.574,22,38.69l0,0&#10;&#9;&#9;c13.641,8.117,22,22.817,22,38.69v0C163.5,499.844,158.844,504.5,153.1,504.5z"/>
	<path style="fill:none;stroke:#000000;stroke-width:15;stroke-linecap:round;stroke-linejoin:round;stroke-miterlimit:10;" d="&#10;&#9;&#9;M27.5,52.5v-25c0-11.046,8.954-20,20-20h130c11.046,0,20,8.954,20,20v25"/>
	<path style="fill:none;stroke:#000000;stroke-width:15;stroke-linecap:round;stroke-linejoin:round;stroke-miterlimit:10;" d="&#10;&#9;&#9;M127.5,52.5h70c11.046,0,20,8.954,20,20v26.247c0,14.863-7.339,28.768-19.611,37.154L187.5,143v0c0,10.769-8.73,19.5-19.5,19.5H31&#10;&#9;&#9;c-12.979,0-23.5-10.521-23.5-23.5V72.5c0-11.046,8.954-20,20-20h65"/>
	
		<circle style="fill:none;stroke:#000000;stroke-width:15;stroke-linecap:round;stroke-linejoin:round;stroke-miterlimit:10;" cx="52.5" cy="97.5" r="15"/>
	
		<circle style="fill:none;stroke:#000000;stroke-width:15;stroke-linecap:round;stroke-linejoin:round;stroke-miterlimit:10;" cx="172.5" cy="97.5" r="15"/>
	
		<line style="fill:none;stroke:#000000;stroke-width:15;stroke-linecap:round;stroke-linejoin:round;stroke-miterlimit:10;" x1="172.5" y1="82.5" x2="172.5" y2="52.5"/>
	
		<line style="fill:none;stroke:#000000;stroke-width:15;stroke-linecap:round;stroke-linejoin:round;stroke-miterlimit:10;" x1="187.5" y1="97.5" x2="217.5" y2="97.5"/>
	
		<line style="fill:none;stroke:#000000;stroke-width:15;stroke-linecap:round;stroke-linejoin:round;stroke-miterlimit:10;" x1="127.5" y1="97.5" x2="157.5" y2="97.5"/>
	
		<line style="fill:none;stroke:#000000;stroke-width:15;stroke-linecap:round;stroke-linejoin:round;stroke-miterlimit:10;" x1="37.5" y1="97.5" x2="7.5" y2="97.5"/>
	
		<line style="fill:none;stroke:#000000;stroke-width:15;stroke-linecap:round;stroke-linejoin:round;stroke-miterlimit:10;" x1="97.5" y1="97.5" x2="67.5" y2="97.5"/>
	
		<line style="fill:none;stroke:#000000;stroke-width:15;stroke-linecap:round;stroke-linejoin:round;stroke-miterlimit:10;" x1="52.5" y1="82" x2="52.5" y2="53"/>
	
		<line style="fill:none;stroke:#000000;stroke-width:15;stroke-linecap:round;stroke-linejoin:round;stroke-miterlimit:10;" x1="127.5" y1="109.5" x2="127.5" y2="85.5"/>
	
		<line style="fill:none;stroke:#000000;stroke-width:15;stroke-linecap:round;stroke-linejoin:round;stroke-miterlimit:10;" x1="97.5" y1="109.5" x2="97.5" y2="85.5"/>
	<g>
		
			<circle style="fill:none;stroke:#000000;stroke-width:15;stroke-linecap:round;stroke-linejoin:round;stroke-miterlimit:10;" cx="63.5" cy="448.5" r="29"/>
		
			<line style="fill:none;stroke:#000000;stroke-width:15;stroke-linecap:round;stroke-linejoin:round;stroke-miterlimit:10;" x1="42.994" y1="469.006" x2="84.006" y2="427.994"/>
	</g>
	<g>
		<g>
			<g>
				<path style="fill:none;stroke:#000000;stroke-width:15;stroke-linecap:round;stroke-linejoin:round;stroke-miterlimit:10;" d="&#10;&#9;&#9;&#9;&#9;&#9;M421.957,389.581h56.592c8.098,0,14.663,6.572,14.663,14.68v0c0,8.107-6.565,14.68-14.663,14.68h-2.429"/>
			</g>
			<path style="fill:none;stroke:#000000;stroke-width:15;stroke-linecap:round;stroke-linejoin:round;stroke-miterlimit:10;" d="&#10;&#9;&#9;&#9;&#9;M333.656,436.112v-0.355c0-13.612,7.39-25.922,18.971-33.074c3.412-2.107,6.59-5.109,8.826-9.385l0,0&#10;&#9;&#9;&#9;&#9;c8.481-18.149,26.683-29.752,46.7-29.769l34.376-0.029c0,0,0.002,0.007,0.002,0.009c7.725,0.165,14.618,5.589,16.327,13.479&#10;&#9;&#9;&#9;&#9;l2.364,11.294"/>
			<path style="fill:none;stroke:#000000;stroke-width:15;stroke-linecap:round;stroke-linejoin:round;stroke-miterlimit:10;" d="&#10;&#9;&#9;&#9;&#9;M408.745,504.488c-17.835-0.256-42.593-4.482-53.288-10.159c-0.06-0.032-0.119-0.063-0.18-0.094&#10;&#9;&#9;&#9;&#9;c-12.145-6.289-20.328-18.119-21.481-31.561"/>
			<path style="fill:none;stroke:#000000;stroke-width:15;stroke-linecap:round;stroke-linejoin:round;stroke-miterlimit:10;" d="&#10;&#9;&#9;&#9;&#9;M461.021,418.94h28.493c8.277,0,14.986,6.71,14.986,14.986v0c0,8.277-6.71,14.986-14.986,14.986h-9.105h2.135&#10;&#9;&#9;&#9;&#9;c8.261,0,14.958,6.697,14.958,14.958v0c0,8.261-6.697,14.958-14.958,14.958h-21.522h13.957c7.089,0,12.836,5.747,12.836,12.836v0&#10;&#9;&#9;&#9;&#9;c0,7.089-5.747,12.836-12.836,12.836h-31.19"/>
		</g>
		
			<line style="fill:none;stroke:#000000;stroke-width:15;stroke-linecap:round;stroke-linejoin:round;stroke-miterlimit:10;" x1="480.002" y1="448.912" x2="461.021" y2="448.912"/>
		<path style="fill:none;stroke:#000000;stroke-width:15;stroke-linecap:round;stroke-linejoin:round;stroke-miterlimit:10;" d="&#10;&#9;&#9;&#9;M363.108,462.382h-66c-7.18,0-13-5.82-13-13v0c0-7.18,5.82-13,13-13h66"/>
	</g>
	<path style="fill:none;stroke:#000000;stroke-width:15;stroke-linecap:round;stroke-linejoin:round;stroke-miterlimit:10;" d="&#10;&#9;&#9;M247,493.5h-46c-3.866,0-7-3.134-7-7v-76c0-3.866,3.134-7,7-7h46c3.866,0,7,3.134,7,7v76C254,490.366,250.866,493.5,247,493.5z"/>
	
		<line style="fill:none;stroke:#000000;stroke-width:15;stroke-linecap:round;stroke-linejoin:round;stroke-miterlimit:10;" x1="224.5" y1="392.5" x2="224.5" y2="504.5"/>
	
		<line style="fill:none;stroke:#000000;stroke-width:15;stroke-linecap:round;stroke-linejoin:round;stroke-miterlimit:10;" x1="363" y1="427.5" x2="363" y2="470.5"/>
	<path style="fill:none;stroke:#000000;stroke-width:15;stroke-linecap:round;stroke-linejoin:round;stroke-miterlimit:10;" d="&#10;&#9;&#9;M178.808,287.947c-3.848,7.29-8.266,14.307-13.231,20.985L154,324.5H97.5v-112c0-11.046,8.954-20,20-20h60c11.046,0,20,8.954,20,20&#10;&#9;&#9;v0c0,14.622-1.983,29.08-5.826,43"/>
	<g>
		
			<polygon style="fill:none;stroke:#000000;stroke-width:15;stroke-linecap:round;stroke-linejoin:round;stroke-miterlimit:10;" points="&#10;&#9;&#9;&#9;37.5,283 37.5,283 37.5,283 37.5,283 &#9;&#9;"/>
		
			<polygon style="fill:none;stroke:#000000;stroke-width:15;stroke-linecap:round;stroke-linejoin:round;stroke-miterlimit:10;" points="&#10;&#9;&#9;&#9;37.5,253 37.5,253 37.5,253 37.5,253 &#9;&#9;"/>
		
			<polygon style="fill:none;stroke:#000000;stroke-width:15;stroke-linecap:round;stroke-linejoin:round;stroke-miterlimit:10;" points="&#10;&#9;&#9;&#9;37.5,313 37.5,313 37.5,313 37.5,313 &#9;&#9;"/>
	</g>
	<path style="fill:none;stroke:#000000;stroke-width:15;stroke-linecap:round;stroke-linejoin:round;stroke-miterlimit:10;" d="&#10;&#9;&#9;M97.5,324.5V341c0,9.113,7.387,16.5,16.5,16.5h42c9.113,0,16.5-7.387,16.5-16.5v0c0-9.113-7.387-16.5-16.5-16.5h-2"/>
	
		<line style="fill:none;stroke:#000000;stroke-width:15;stroke-linecap:round;stroke-linejoin:round;stroke-miterlimit:10;" x1="117.5" y1="192.5" x2="117.5" y2="162.5"/>
	
		<line style="fill:none;stroke:#000000;stroke-width:15;stroke-linecap:round;stroke-linejoin:round;stroke-miterlimit:10;" x1="147.5" y1="192.5" x2="147.5" y2="162.5"/>
	
		<line style="fill:none;stroke:#000000;stroke-width:15;stroke-linecap:round;stroke-linejoin:round;stroke-miterlimit:10;" x1="149.5" y1="357.5" x2="149.5" y2="413.5"/>
	
		<line style="fill:none;stroke:#000000;stroke-width:15;stroke-linecap:round;stroke-linejoin:round;stroke-miterlimit:10;" x1="119.5" y1="357.5" x2="119.5" y2="392.5"/>
</g>















</svg>
